<svg id="visual" viewBox="0 0 900 600" width="900" height="600" xmlns="http://www.w3.org/2000/svg" xmlns:xlink="http://www.w3.org/1999/xlink" version="1.1"><rect x="0" y="0" width="900" height="600" fill="#556B2F"></rect><defs><linearGradient id="grad1_0" x1="33.3%" y1="0%" x2="100%" y2="100%"><stop offset="20%" stop-color="#556b2f" stop-opacity="1"></stop><stop offset="80%" stop-color="#556b2f" stop-opacity="1"></stop></linearGradient></defs><defs><linearGradient id="grad2_0" x1="0%" y1="0%" x2="66.7%" y2="100%"><stop offset="20%" stop-color="#556b2f" stop-opacity="1"></stop><stop offset="80%" stop-color="#556b2f" stop-opacity="1"></stop></linearGradient></defs><g transform="translate(900, 0)"><path d="M0 486.7C-50.9 458.6 -101.9 430.5 -171.8 414.8C-241.8 399.1 -330.7 395.8 -344.2 344.2C-357.6 292.5 -295.6 192.5 -306.7 127.1C-317.9 61.6 -402.3 30.8 -486.7 0L0 0Z" fill="#FFE797"></path></g><g transform="translate(0, 600)"><path d="M0 -486.7C68.2 -487.3 136.5 -487.8 186.3 -449.7C236.1 -411.6 267.5 -334.7 272.2 -272.2C277 -209.8 255.1 -161.6 286.4 -118.6C317.7 -75.7 402.2 -37.8 486.7 0L0 0Z" fill="#FFE797"></path></g></svg>