<svg id="visual" viewBox="0 0 900 600" width="900" height="600" xmlns="http://www.w3.org/2000/svg" xmlns:xlink="http://www.w3.org/1999/xlink" version="1.1"><rect x="0" y="0" width="900" height="600" fill="#84994F"></rect><defs><linearGradient id="grad1_0" x1="33.3%" y1="0%" x2="100%" y2="100%"><stop offset="20%" stop-color="#84994f" stop-opacity="1"></stop><stop offset="80%" stop-color="#84994f" stop-opacity="1"></stop></linearGradient></defs><defs><linearGradient id="grad2_0" x1="0%" y1="0%" x2="66.7%" y2="100%"><stop offset="20%" stop-color="#84994f" stop-opacity="1"></stop><stop offset="80%" stop-color="#84994f" stop-opacity="1"></stop></linearGradient></defs><g transform="translate(900, 0)"><path d="M0 486.7C-36.8 398.9 -73.6 311 -115.6 279C-157.6 247 -204.7 270.9 -268 268C-331.2 265.1 -410.6 235.4 -449.7 186.3C-488.8 137.1 -487.8 68.6 -486.7 0L0 0Z" fill="#FFE797"></path></g><g transform="translate(0, 600)"><path d="M0 -486.7C44.8 -424.8 89.5 -362.9 139.3 -336.3C189.1 -309.7 243.9 -318.5 301.2 -301.2C358.5 -284 418.4 -240.8 449.7 -186.3C481 -131.7 483.9 -65.9 486.7 0L0 0Z" fill="#FFE797"></path></g></svg>