<svg id="visual" viewBox="0 0 900 600" width="900" height="600" xmlns="http://www.w3.org/2000/svg" xmlns:xlink="http://www.w3.org/1999/xlink" version="1.1"><rect x="0" y="0" width="900" height="600" fill="#84994f"></rect><defs><linearGradient id="grad1_0" x1="33.3%" y1="0%" x2="100%" y2="100%"><stop offset="20%" stop-color="#84994f" stop-opacity="1"></stop><stop offset="80%" stop-color="#84994f" stop-opacity="1"></stop></linearGradient></defs><defs><linearGradient id="grad2_0" x1="0%" y1="0%" x2="66.7%" y2="100%"><stop offset="20%" stop-color="#84994f" stop-opacity="1"></stop><stop offset="80%" stop-color="#84994f" stop-opacity="1"></stop></linearGradient></defs><g transform="translate(900, 0)"><path d="M0 395C-51.6 389.4 -103.1 383.9 -150 362.2C-196.9 340.4 -239.1 302.5 -260.2 260.2C-281.4 217.9 -281.5 171.2 -306.7 127.1C-332 82.9 -382.3 41.5 -432.7 0L0 0Z" fill="#f0e491"></path></g><g transform="translate(0, 600)"><path d="M0 -333C41.9 -322.2 83.9 -311.4 121.7 -293.8C159.5 -276.2 193.2 -251.7 225.6 -225.6C258 -199.5 289.1 -171.8 323.4 -133.9C357.7 -96.1 395.2 -48 432.7 0L0 0Z" fill="#f0e491"></path></g></svg>