<svg id="visual" viewBox="0 0 900 600" width="900" height="600" xmlns="http://www.w3.org/2000/svg" xmlns:xlink="http://www.w3.org/1999/xlink" version="1.1"><rect x="0" y="0" width="900" height="600" fill="#84994f"></rect><defs><linearGradient id="grad1_0" x1="33.3%" y1="0%" x2="100%" y2="100%"><stop offset="20%" stop-color="#84994f" stop-opacity="1"></stop><stop offset="80%" stop-color="#84994f" stop-opacity="1"></stop></linearGradient></defs><defs><linearGradient id="grad2_0" x1="0%" y1="0%" x2="66.7%" y2="100%"><stop offset="20%" stop-color="#84994f" stop-opacity="1"></stop><stop offset="80%" stop-color="#84994f" stop-opacity="1"></stop></linearGradient></defs><g transform="translate(900, 0)"><path d="M0 432.7C-40 380.5 -80.1 328.3 -125.1 302.1C-170.2 275.9 -220.3 275.7 -248.9 248.9C-277.5 222.1 -284.5 168.8 -296.6 122.8C-308.7 76.9 -325.8 38.5 -343 0L0 0Z" fill="#f0e491"></path></g><g transform="translate(0, 600)"><path d="M0 -401C68.3 -419.4 136.5 -437.9 165.6 -399.7C194.6 -361.6 184.5 -266.8 222.7 -222.7C261 -178.6 347.7 -185.2 377.9 -156.5C408 -127.8 381.5 -63.9 355 0L0 0Z" fill="#f0e491"></path></g></svg>