<svg id="visual" viewBox="0 0 900 600" width="900" height="600" xmlns="http://www.w3.org/2000/svg" xmlns:xlink="http://www.w3.org/1999/xlink" version="1.1"><rect x="0" y="0" width="900" height="600" fill="#23412f"></rect><defs><linearGradient id="grad1_0" x1="33.3%" y1="0%" x2="100%" y2="100%"><stop offset="20%" stop-color="#23412f" stop-opacity="1"></stop><stop offset="80%" stop-color="#23412f" stop-opacity="1"></stop></linearGradient></defs><defs><linearGradient id="grad2_0" x1="0%" y1="0%" x2="66.7%" y2="100%"><stop offset="20%" stop-color="#23412f" stop-opacity="1"></stop><stop offset="80%" stop-color="#23412f" stop-opacity="1"></stop></linearGradient></defs><g transform="translate(900, 0)"><path d="M0 324.5C-43.1 316 -86.3 307.6 -118.6 286.4C-151 265.2 -172.6 231.4 -204.4 204.4C-236.1 177.3 -278.1 157.1 -299.8 124.2C-321.5 91.3 -323 45.6 -324.5 0L0 0Z" fill="#ffe797"></path></g><g transform="translate(0, 600)"><path d="M0 -324.5C39.2 -314.4 78.4 -304.2 120.5 -291C162.7 -277.8 207.7 -261.6 229.5 -229.5C251.2 -197.3 249.5 -149.2 261.5 -108.3C273.4 -67.4 299 -33.7 324.5 0L0 0Z" fill="#ffe797"></path></g></svg>