<svg id="visual" viewBox="0 0 900 600" width="900" height="600" xmlns="http://www.w3.org/2000/svg" xmlns:xlink="http://www.w3.org/1999/xlink" version="1.1"><rect x="0" y="0" width="900" height="600" fill="#043915"></rect><path d="M434 600L538 300L525 0L900 0L900 300L900 600Z" fill="#b0ce88"></path><path d="M601 600L589 300L463 0L900 0L900 300L900 600Z" fill="#bed88a"></path><path d="M643 600L669 300L542 0L900 0L900 300L900 600Z" fill="#cde18b"></path><path d="M671 600L682 300L647 0L900 0L900 300L900 600Z" fill="#ddeb8d"></path><path d="M741 600L773 300L787 0L900 0L900 300L900 600Z" fill="#eef48e"></path><path d="M802 600L852 300L775 0L900 0L900 300L900 600Z" fill="#fffd8f"></path></svg>