<svg id="visual" viewBox="0 0 900 600" width="900" height="600" xmlns="http://www.w3.org/2000/svg" xmlns:xlink="http://www.w3.org/1999/xlink" version="1.1"><rect x="0" y="0" width="900" height="600" fill="#043915"></rect><path d="M435 600L444.7 585.7C454.3 571.3 473.7 542.7 472.2 514.2C470.7 485.7 448.3 457.3 433.7 428.8C419 400.3 412 371.7 419.2 343C426.3 314.3 447.7 285.7 448.5 257C449.3 228.3 429.7 199.7 440 171.2C450.3 142.7 490.7 114.3 487.7 85.8C484.7 57.3 438.3 28.7 415.2 14.3L392 0L900 0L900 14.3C900 28.7 900 57.3 900 85.8C900 114.3 900 142.7 900 171.2C900 199.7 900 228.3 900 257C900 285.7 900 314.3 900 343C900 371.7 900 400.3 900 428.8C900 457.3 900 485.7 900 514.2C900 542.7 900 571.3 900 585.7L900 600Z" fill="#b0ce88"></path><path d="M433 600L443.2 585.7C453.3 571.3 473.7 542.7 489.5 514.2C505.3 485.7 516.7 457.3 522.7 428.8C528.7 400.3 529.3 371.7 534 343C538.7 314.3 547.3 285.7 533.2 257C519 228.3 482 199.7 479 171.2C476 142.7 507 114.3 503.3 85.8C499.7 57.3 461.3 28.7 442.2 14.3L423 0L900 0L900 14.3C900 28.7 900 57.3 900 85.8C900 114.3 900 142.7 900 171.2C900 199.7 900 228.3 900 257C900 285.7 900 314.3 900 343C900 371.7 900 400.3 900 428.8C900 457.3 900 485.7 900 514.2C900 542.7 900 571.3 900 585.7L900 600Z" fill="#c2da8a"></path><path d="M691 600L676.5 585.7C662 571.3 633 542.7 614 514.2C595 485.7 586 457.3 587.8 428.8C589.7 400.3 602.3 371.7 603.7 343C605 314.3 595 285.7 582.8 257C570.7 228.3 556.3 199.7 573.7 171.2C591 142.7 640 114.3 653.7 85.8C667.3 57.3 645.7 28.7 634.8 14.3L624 0L900 0L900 14.3C900 28.7 900 57.3 900 85.8C900 114.3 900 142.7 900 171.2C900 199.7 900 228.3 900 257C900 285.7 900 314.3 900 343C900 371.7 900 400.3 900 428.8C900 457.3 900 485.7 900 514.2C900 542.7 900 571.3 900 585.7L900 600Z" fill="#d5e68c"></path><path d="M638 600L644.7 585.7C651.3 571.3 664.7 542.7 669.7 514.2C674.7 485.7 671.3 457.3 679.8 428.8C688.3 400.3 708.7 371.7 704.2 343C699.7 314.3 670.3 285.7 660 257C649.7 228.3 658.3 199.7 665.3 171.2C672.3 142.7 677.7 114.3 688.5 85.8C699.3 57.3 715.7 28.7 723.8 14.3L732 0L900 0L900 14.3C900 28.7 900 57.3 900 85.8C900 114.3 900 142.7 900 171.2C900 199.7 900 228.3 900 257C900 285.7 900 314.3 900 343C900 371.7 900 400.3 900 428.8C900 457.3 900 485.7 900 514.2C900 542.7 900 571.3 900 585.7L900 600Z" fill="#e9f28d"></path><path d="M736 600L746.2 585.7C756.3 571.3 776.7 542.7 787.5 514.2C798.3 485.7 799.7 457.3 798.3 428.8C797 400.3 793 371.7 780.3 343C767.7 314.3 746.3 285.7 745.5 257C744.7 228.3 764.3 199.7 773 171.2C781.7 142.7 779.3 114.3 777.3 85.8C775.3 57.3 773.7 28.7 772.8 14.3L772 0L900 0L900 14.3C900 28.7 900 57.3 900 85.8C900 114.3 900 142.7 900 171.2C900 199.7 900 228.3 900 257C900 285.7 900 314.3 900 343C900 371.7 900 400.3 900 428.8C900 457.3 900 485.7 900 514.2C900 542.7 900 571.3 900 585.7L900 600Z" fill="#fffd8f"></path></svg>