<svg id="visual" viewBox="0 0 900 600" width="900" height="600" xmlns="http://www.w3.org/2000/svg" xmlns:xlink="http://www.w3.org/1999/xlink" version="1.1"><path d="M0 145L13.7 153C27.3 161 54.7 177 82 177C109.3 177 136.7 161 163.8 149C191 137 218 129 245.2 132C272.3 135 299.7 149 327 171C354.3 193 381.7 223 409 237C436.3 251 463.7 249 491 259C518.3 269 545.7 291 573 281C600.3 271 627.7 229 654.8 228C682 227 709 267 736.2 259C763.3 251 790.7 195 818 185C845.3 175 872.7 211 886.3 229L900 247L900 0L886.3 0C872.7 0 845.3 0 818 0C790.7 0 763.3 0 736.2 0C709 0 682 0 654.8 0C627.7 0 600.3 0 573 0C545.7 0 518.3 0 491 0C463.7 0 436.3 0 409 0C381.7 0 354.3 0 327 0C299.7 0 272.3 0 245.2 0C218 0 191 0 163.8 0C136.7 0 109.3 0 82 0C54.7 0 27.3 0 13.7 0L0 0Z" fill="#c7deae"></path><path d="M0 217L13.7 234C27.3 251 54.7 285 82 294C109.3 303 136.7 287 163.8 265C191 243 218 215 245.2 215C272.3 215 299.7 243 327 271C354.3 299 381.7 327 409 338C436.3 349 463.7 343 491 344C518.3 345 545.7 353 573 338C600.3 323 627.7 285 654.8 297C682 309 709 371 736.2 361C763.3 351 790.7 269 818 250C845.3 231 872.7 275 886.3 297L900 319L900 245L886.3 227C872.7 209 845.3 173 818 183C790.7 193 763.3 249 736.2 257C709 265 682 225 654.8 226C627.7 227 600.3 269 573 279C545.7 289 518.3 267 491 257C463.7 247 436.3 249 409 235C381.7 221 354.3 191 327 169C299.7 147 272.3 133 245.2 130C218 127 191 135 163.8 147C136.7 159 109.3 175 82 175C54.7 175 27.3 159 13.7 151L0 143Z" fill="#b8d395"></path><path d="M0 505L13.7 495C27.3 485 54.7 465 82 455C109.3 445 136.7 445 163.8 448C191 451 218 457 245.2 463C272.3 469 299.7 475 327 480C354.3 485 381.7 489 409 493C436.3 497 463.7 501 491 505C518.3 509 545.7 513 573 516C600.3 519 627.7 521 654.8 525C682 529 709 535 736.2 535C763.3 535 790.7 529 818 512C845.3 495 872.7 467 886.3 453L900 439L900 317L886.3 295C872.7 273 845.3 229 818 248C790.7 267 763.3 349 736.2 359C709 369 682 307 654.8 295C627.7 283 600.3 321 573 336C545.7 351 518.3 343 491 342C463.7 341 436.3 347 409 336C381.7 325 354.3 297 327 269C299.7 241 272.3 213 245.2 213C218 213 191 241 163.8 263C136.7 285 109.3 301 82 292C54.7 283 27.3 249 13.7 232L0 215Z" fill="#a0bc7a"></path><path d="M0 601L13.7 601C27.3 601 54.7 601 82 601C109.3 601 136.7 601 163.8 601C191 601 218 601 245.2 601C272.3 601 299.7 601 327 601C354.3 601 381.7 601 409 601C436.3 601 463.7 601 491 601C518.3 601 545.7 601 573 601C600.3 601 627.7 601 654.8 601C682 601 709 601 736.2 601C763.3 601 790.7 601 818 601C845.3 601 872.7 601 886.3 601L900 601L900 437L886.3 451C872.7 465 845.3 493 818 510C790.7 527 763.3 533 736.2 533C709 533 682 527 654.8 523C627.7 519 600.3 517 573 514C545.7 511 518.3 507 491 503C463.7 499 436.3 495 409 491C381.7 487 354.3 483 327 478C299.7 473 272.3 467 245.2 461C218 455 191 449 163.8 446C136.7 443 109.3 443 82 453C54.7 463 27.3 483 13.7 493L0 503Z" fill="#819a60"></path></svg>