<svg id="visual" viewBox="0 0 900 600" width="900" height="600" xmlns="http://www.w3.org/2000/svg" xmlns:xlink="http://www.w3.org/1999/xlink" version="1.1"><rect x="0" y="0" width="900" height="600" fill="#8FA31E"></rect><defs><linearGradient id="grad1_0" x1="33.3%" y1="0%" x2="100%" y2="100%"><stop offset="20%" stop-color="#8fa31e" stop-opacity="1"></stop><stop offset="80%" stop-color="#8fa31e" stop-opacity="1"></stop></linearGradient></defs><defs><linearGradient id="grad2_0" x1="0%" y1="0%" x2="66.7%" y2="100%"><stop offset="20%" stop-color="#8fa31e" stop-opacity="1"></stop><stop offset="80%" stop-color="#8fa31e" stop-opacity="1"></stop></linearGradient></defs><g transform="translate(900, 0)"><path d="M0 486.7C-64.4 482.6 -128.8 478.4 -186.3 449.7C-243.8 421 -294.3 367.8 -309.7 309.7C-325.1 251.6 -305.3 188.7 -328.9 136.2C-352.5 83.8 -419.6 41.9 -486.7 0L0 0Z" fill="#FFFD8F"></path></g><g transform="translate(0, 600)"><path d="M0 -486.7C37.4 -417.4 74.8 -348 138.5 -334.4C202.2 -320.9 292.2 -363.2 344.2 -344.2C396.2 -325.1 410.3 -244.8 427.8 -177.2C445.2 -109.6 466 -54.8 486.7 0L0 0Z" fill="#FFFD8F"></path></g></svg>