<svg id="visual" viewBox="0 0 900 600" width="900" height="600" xmlns="http://www.w3.org/2000/svg" xmlns:xlink="http://www.w3.org/1999/xlink" version="1.1"><rect x="0" y="0" width="900" height="600" fill="#C6D870"></rect><defs><linearGradient id="grad1_0" x1="33.3%" y1="0%" x2="100%" y2="100%"><stop offset="20%" stop-color="#c6d870" stop-opacity="1"></stop><stop offset="80%" stop-color="#c6d870" stop-opacity="1"></stop></linearGradient></defs><defs><linearGradient id="grad2_0" x1="0%" y1="0%" x2="66.7%" y2="100%"><stop offset="20%" stop-color="#c6d870" stop-opacity="1"></stop><stop offset="80%" stop-color="#c6d870" stop-opacity="1"></stop></linearGradient></defs><g transform="translate(900, 0)"><path d="M0 486.7C-36.8 481.2 -73.5 475.7 -105.3 461.1C-137 446.6 -163.7 423.1 -198.3 411.7C-232.9 400.3 -275.4 401 -303.5 380.6C-331.6 360.1 -345.2 318.5 -352.6 281.2C-360 243.9 -361.3 210.8 -381.1 183.5C-401 156.2 -439.5 134.7 -460.2 105C-480.9 75.4 -483.8 37.7 -486.7 0L0 0Z" fill="#EFF5D2"></path></g><g transform="translate(0, 600)"><path d="M0 -486.7C39.7 -491.8 79.4 -496.9 108.3 -474.5C137.3 -452.2 155.5 -402.3 183.5 -381.1C211.6 -359.9 249.5 -367.4 288.1 -361.2C326.6 -355 365.7 -335.2 377.6 -301.1C389.6 -267.1 374.4 -218.9 383.8 -184.8C393.2 -150.8 427.2 -130.8 448.5 -102.4C469.7 -73.9 478.2 -37 486.7 0L0 0Z" fill="#EFF5D2"></path></g></svg>