<svg id="visual" viewBox="0 0 900 600" width="900" height="600" xmlns="http://www.w3.org/2000/svg" xmlns:xlink="http://www.w3.org/1999/xlink" version="1.1"><rect x="0" y="0" width="900" height="600" fill="#23412f"></rect><defs><linearGradient id="grad1_0" x1="33.3%" y1="0%" x2="100%" y2="100%"><stop offset="20%" stop-color="#23412f" stop-opacity="1"></stop><stop offset="80%" stop-color="#23412f" stop-opacity="1"></stop></linearGradient></defs><defs><linearGradient id="grad2_0" x1="0%" y1="0%" x2="66.7%" y2="100%"><stop offset="20%" stop-color="#23412f" stop-opacity="1"></stop><stop offset="80%" stop-color="#23412f" stop-opacity="1"></stop></linearGradient></defs><g transform="translate(900, 0)"><path d="M0 378.6C-48.9 373 -97.8 367.4 -144.9 349.8C-192 332.1 -237.2 302.5 -263 263C-288.9 223.6 -295.3 174.4 -311.3 129C-327.4 83.5 -353 41.7 -378.6 0L0 0Z" fill="#ffe797"></path></g><g transform="translate(0, 600)"><path d="M0 -378.6C52.4 -376.4 104.8 -374.2 144.9 -349.8C185 -325.3 212.7 -278.7 239.7 -239.7C266.7 -200.8 292.9 -169.5 316 -130.9C339 -92.2 358.8 -46.1 378.6 0L0 0Z" fill="#ffe797"></path></g></svg>