<svg id="visual" viewBox="0 0 900 600" width="900" height="600" xmlns="http://www.w3.org/2000/svg" xmlns:xlink="http://www.w3.org/1999/xlink" version="1.1"><rect x="0" y="0" width="900" height="600" fill="#2b3804"></rect><defs><linearGradient id="grad1_0" x1="33.3%" y1="0%" x2="100%" y2="100%"><stop offset="20%" stop-color="#2b3804" stop-opacity="1"></stop><stop offset="80%" stop-color="#2b3804" stop-opacity="1"></stop></linearGradient></defs><defs><linearGradient id="grad2_0" x1="0%" y1="0%" x2="66.7%" y2="100%"><stop offset="20%" stop-color="#2b3804" stop-opacity="1"></stop><stop offset="80%" stop-color="#2b3804" stop-opacity="1"></stop></linearGradient></defs><g transform="translate(900, 0)"><path d="M0 540.8C-69.2 523 -138.4 505.1 -196.3 474C-254.3 442.8 -301 398.5 -354.3 354.3C-407.6 310 -467.5 266 -499.7 207C-531.9 147.9 -536.3 74 -540.8 0L0 0Z" fill="#556B2F"></path></g><g transform="translate(0, 600)"><path d="M0 -540.8C73.2 -535.5 146.5 -530.2 207 -499.7C267.5 -469.1 315.3 -413.4 360.6 -360.6C406 -307.8 448.9 -257.9 478.6 -198.2C508.2 -138.6 524.5 -69.3 540.8 0L0 0Z" fill="#556B2F"></path></g></svg>