<svg id="visual" viewBox="0 0 900 600" width="900" height="600" xmlns="http://www.w3.org/2000/svg" xmlns:xlink="http://www.w3.org/1999/xlink" version="1.1"><path d="M0 127L13.7 133C27.3 139 54.7 151 82 152C109.3 153 136.7 143 163.8 146C191 149 218 165 245.2 168C272.3 171 299.7 161 327 155C354.3 149 381.7 147 409 151C436.3 155 463.7 165 491 174C518.3 183 545.7 191 573 184C600.3 177 627.7 155 654.8 153C682 151 709 169 736.2 167C763.3 165 790.7 143 818 130C845.3 117 872.7 113 886.3 111L900 109L900 0L886.3 0C872.7 0 845.3 0 818 0C790.7 0 763.3 0 736.2 0C709 0 682 0 654.8 0C627.7 0 600.3 0 573 0C545.7 0 518.3 0 491 0C463.7 0 436.3 0 409 0C381.7 0 354.3 0 327 0C299.7 0 272.3 0 245.2 0C218 0 191 0 163.8 0C136.7 0 109.3 0 82 0C54.7 0 27.3 0 13.7 0L0 0Z" fill="#eff5d2"></path><path d="M0 163L13.7 173C27.3 183 54.7 203 82 211C109.3 219 136.7 215 163.8 221C191 227 218 243 245.2 241C272.3 239 299.7 219 327 208C354.3 197 381.7 195 409 201C436.3 207 463.7 221 491 229C518.3 237 545.7 239 573 234C600.3 229 627.7 217 654.8 213C682 209 709 213 736.2 204C763.3 195 790.7 173 818 159C845.3 145 872.7 139 886.3 136L900 133L900 107L886.3 109C872.7 111 845.3 115 818 128C790.7 141 763.3 163 736.2 165C709 167 682 149 654.8 151C627.7 153 600.3 175 573 182C545.7 189 518.3 181 491 172C463.7 163 436.3 153 409 149C381.7 145 354.3 147 327 153C299.7 159 272.3 169 245.2 166C218 163 191 147 163.8 144C136.7 141 109.3 151 82 150C54.7 149 27.3 137 13.7 131L0 125Z" fill="#e8f0c2"></path><path d="M0 223L13.7 227C27.3 231 54.7 239 82 243C109.3 247 136.7 247 163.8 255C191 263 218 279 245.2 278C272.3 277 299.7 259 327 250C354.3 241 381.7 241 409 250C436.3 259 463.7 277 491 281C518.3 285 545.7 275 573 264C600.3 253 627.7 241 654.8 244C682 247 709 265 736.2 260C763.3 255 790.7 227 818 211C845.3 195 872.7 191 886.3 189L900 187L900 131L886.3 134C872.7 137 845.3 143 818 157C790.7 171 763.3 193 736.2 202C709 211 682 207 654.8 211C627.7 215 600.3 227 573 232C545.7 237 518.3 235 491 227C463.7 219 436.3 205 409 199C381.7 193 354.3 195 327 206C299.7 217 272.3 237 245.2 239C218 241 191 225 163.8 219C136.7 213 109.3 217 82 209C54.7 201 27.3 181 13.7 171L0 161Z" fill="#e2ecb2"></path><path d="M0 289L13.7 295C27.3 301 54.7 313 82 317C109.3 321 136.7 317 163.8 319C191 321 218 329 245.2 326C272.3 323 299.7 309 327 301C354.3 293 381.7 291 409 296C436.3 301 463.7 313 491 319C518.3 325 545.7 325 573 315C600.3 305 627.7 285 654.8 288C682 291 709 317 736.2 315C763.3 313 790.7 283 818 267C845.3 251 872.7 249 886.3 248L900 247L900 185L886.3 187C872.7 189 845.3 193 818 209C790.7 225 763.3 253 736.2 258C709 263 682 245 654.8 242C627.7 239 600.3 251 573 262C545.7 273 518.3 283 491 279C463.7 275 436.3 257 409 248C381.7 239 354.3 239 327 248C299.7 257 272.3 275 245.2 276C218 277 191 261 163.8 253C136.7 245 109.3 245 82 241C54.7 237 27.3 229 13.7 225L0 221Z" fill="#dbe7a2"></path><path d="M0 433L13.7 441C27.3 449 54.7 465 82 464C109.3 463 136.7 445 163.8 448C191 451 218 475 245.2 472C272.3 469 299.7 439 327 438C354.3 437 381.7 465 409 478C436.3 491 463.7 489 491 474C518.3 459 545.7 431 573 427C600.3 423 627.7 443 654.8 447C682 451 709 439 736.2 434C763.3 429 790.7 431 818 439C845.3 447 872.7 461 886.3 468L900 475L900 245L886.3 246C872.7 247 845.3 249 818 265C790.7 281 763.3 311 736.2 313C709 315 682 289 654.8 286C627.7 283 600.3 303 573 313C545.7 323 518.3 323 491 317C463.7 311 436.3 299 409 294C381.7 289 354.3 291 327 299C299.7 307 272.3 321 245.2 324C218 327 191 319 163.8 317C136.7 315 109.3 319 82 315C54.7 311 27.3 299 13.7 293L0 287Z" fill="#d4e292"></path><path d="M0 493L13.7 499C27.3 505 54.7 517 82 516C109.3 515 136.7 501 163.8 505C191 509 218 531 245.2 536C272.3 541 299.7 529 327 525C354.3 521 381.7 525 409 531C436.3 537 463.7 545 491 541C518.3 537 545.7 521 573 516C600.3 511 627.7 517 654.8 521C682 525 709 527 736.2 527C763.3 527 790.7 525 818 524C845.3 523 872.7 523 886.3 523L900 523L900 473L886.3 466C872.7 459 845.3 445 818 437C790.7 429 763.3 427 736.2 432C709 437 682 449 654.8 445C627.7 441 600.3 421 573 425C545.7 429 518.3 457 491 472C463.7 487 436.3 489 409 476C381.7 463 354.3 435 327 436C299.7 437 272.3 467 245.2 470C218 473 191 449 163.8 446C136.7 443 109.3 461 82 462C54.7 463 27.3 447 13.7 439L0 431Z" fill="#cddd81"></path><path d="M0 601L13.7 601C27.3 601 54.7 601 82 601C109.3 601 136.7 601 163.8 601C191 601 218 601 245.2 601C272.3 601 299.7 601 327 601C354.3 601 381.7 601 409 601C436.3 601 463.7 601 491 601C518.3 601 545.7 601 573 601C600.3 601 627.7 601 654.8 601C682 601 709 601 736.2 601C763.3 601 790.7 601 818 601C845.3 601 872.7 601 886.3 601L900 601L900 521L886.3 521C872.7 521 845.3 521 818 522C790.7 523 763.3 525 736.2 525C709 525 682 523 654.8 519C627.7 515 600.3 509 573 514C545.7 519 518.3 535 491 539C463.7 543 436.3 535 409 529C381.7 523 354.3 519 327 523C299.7 527 272.3 539 245.2 534C218 529 191 507 163.8 503C136.7 499 109.3 513 82 514C54.7 515 27.3 503 13.7 497L0 491Z" fill="#c6d870"></path></svg>